# xmcd CD database file
#
# Track frame offsets:
#	150
#	15547
#	39580
#	53102
#	74965
#	88155
#	109415
#	123500
#	142712
#	164120
#	181320
#
# Disc length: 2570 seconds
#
# Revision: 2
# Processed by: cddbd v1.4PL0 Copyright (c) Steve Scherf et al.
# Submitted via: CDex 1.40Release
#
DISCID=a10a080b
DTITLE=Earl Gaines - Everything'S Gonna Be Alright
DYEAR=1900
DGENRE=Blues
TTITLE0=Every Night In The Week
TTITLE1=Everything'S Gonna Be Alright
TTITLE2=Two Lovers Are Better Than One
TTITLE3=Sittin' Here Drinkin'
TTITLE4=Best Of Lucky Baby
TTITLE5=The Same Thing
TTITLE6=Your Butt'S Too Big
TTITLE7=Brandi and Champagne
TTITLE8=I'Ll Carry A Torch
TTITLE9=You Put A Spell On Me
TTITLE10=Is It Good To You Baby
EXTD=ID3G: 0
EXTT0=
EXTT1=
EXTT2=
EXTT3=
EXTT4=
EXTT5=
EXTT6=
EXTT7=
EXTT8=
EXTT9=
EXTT10=
PLAYORDER=
